<?xml version="1.0" encoding="UTF-8" standalone="no"?><!DOCTYPE svg PUBLIC "-//W3C//DTD SVG 1.1//EN" "http://www.w3.org/Graphics/SVG/1.1/DTD/svg11.dtd"><svg width="100%" height="100%" viewBox="0 0 4167 3167" version="1.1" xmlns="http://www.w3.org/2000/svg" xmlns:xlink="http://www.w3.org/1999/xlink" xml:space="preserve" xmlns:serif="http://www.serif.com/" style="fill-rule:evenodd;clip-rule:evenodd;"><g id="Requisitos-Funcionales" serif:id="Requisitos Funcionales"><g id="RF-19"><path d="M3691.667,525l0,220.833c0,13.798 -11.202,25 -25,25l-679.167,0c-13.798,0 -25,-11.202 -25,-25l0,-220.833c0,-13.798 11.202,-25 25,-25l679.167,0c13.798,0 25,11.202 25,25Z" style="fill:#d2cdf4;stroke:#c3bcf0;stroke-width:8.33px;"/><g><text x="3263.581px" y="584.632px" style="font-family:'Helvetica-Bold', 'Helvetica';font-weight:700;font-size:45.833px;fill:#1e1e24;">RF-19</text><text x="3125.969px" y="647.132px" style="font-family:'Helvetica';font-size:45.833px;fill:#1e1e24;">Agendamiento citas</text><text x="3082.665px" y="709.632px" style="font-family:'Helvetica';font-size:45.833px;fill:#1e1e24;">con validación traslapes</text></g></g><g id="RF-22"><path d="M3691.667,1004.167l0,220.833c0,13.798 -11.202,25 -25,25l-679.167,0c-13.798,0 -25,-11.202 -25,-25l0,-220.833c0,-13.798 11.202,-25 25,-25l679.167,0c13.798,0 25,11.202 25,25Z" style="fill:#d2cdf4;stroke:#c3bcf0;stroke-width:8.33px;"/><g><text x="3262.675px" y="1068.174px" style="font-family:'Helvetica-Bold', 'Helvetica';font-weight:700;font-size:45.833px;fill:#1e1e24;">RF-22</text><text x="3102.18px" y="1130.674px" style="font-family:'Helvetica';font-size:45.833px;fill:#1e1e24;">Cancelar/reprogramar</text><text x="3219.359px" y="1193.174px" style="font-family:'Helvetica';font-size:45.833px;fill:#1e1e24;">cita clínica</text></g></g><g id="RF-01----18" serif:id="RF-01 -&gt; 18"><path d="M3691.667,1462.5l0,220.833c0,13.798 -11.202,25 -25,25l-679.167,0c-13.798,0 -25,-11.202 -25,-25l0,-220.833c0,-13.798 11.202,-25 25,-25l679.167,0c13.798,0 25,11.202 25,25Z" style="fill:#d2cdf4;stroke:#c3bcf0;stroke-width:8.33px;"/><g><g transform="matrix(4.166667,0,0,4.166667,3327.25118,1522.132365)"><text x="-26.898px" y="0px" style="font-family:'Helvetica-Bold', 'Helvetica';font-weight:700;font-size:11px;fill:#1e1e24;">RF-01</text><text x="3.663px" y="0px" style="font-family:'LucidaGrande-Bold', 'Lucida Grande', sans-serif;font-weight:600;font-size:11px;fill:#1e1e24;">→</text><text x="14.663px" y="0px" style="font-family:'Helvetica-Bold', 'Helvetica';font-weight:700;font-size:11px;fill:#1e1e24;">18</text></g><text x="3155.298px" y="1584.632px" style="font-family:'Helvetica';font-size:45.833px;fill:#1e1e24;">CRUD entidades</text><text x="3134.921px" y="1647.132px" style="font-family:'Helvetica';font-size:45.833px;fill:#1e1e24;">clínicas principales</text></g></g><g id="RF-21"><path d="M3691.667,1900l0,220.833c0,13.798 -11.202,25 -25,25l-679.167,0c-13.798,0 -25,-11.202 -25,-25l0,-220.833c0,-13.798 11.202,-25 25,-25l679.167,0c13.798,0 25,11.202 25,25Z" style="fill:#d2cdf4;stroke:#c3bcf0;stroke-width:8.33px;"/><g><text x="3256.487px" y="1963.952px" style="font-family:'Helvetica-Bold', 'Helvetica';font-weight:700;font-size:45.833px;fill:#1e1e24;">RF-21</text><g transform="matrix(45.833333,0,0,45.833333,3432.267253,2026.451619)"></g><text x="3208.046px" y="2026.452px" style="font-family:'Helvetica';font-size:45.833px;fill:#1e1e24;">Asignación</text><g transform="matrix(45.833333,0,0,45.833333,3530.323283,2088.951619)"></g><text x="3122.724px" y="2088.952px" style="font-family:'Helvetica';font-size:45.833px;fill:#1e1e24;">médico / consultorio</text></g></g><g id="RF-20"><path d="M3691.667,2254.167l0,220.833c0,13.798 -11.202,25 -25,25l-679.167,0c-13.798,0 -25,-11.202 -25,-25l0,-220.833c0,-13.798 11.202,-25 25,-25l679.167,0c13.798,0 25,11.202 25,25Z" style="fill:#d2cdf4;stroke:#c3bcf0;stroke-width:8.33px;"/><g><text x="3263.234px" y="2313.799px" style="font-family:'Helvetica-Bold', 'Helvetica';font-weight:700;font-size:45.833px;fill:#1e1e24;">RF-20</text><text x="3182.97px" y="2376.299px" style="font-family:'Helvetica';font-size:45.833px;fill:#1e1e24;">Consulta citas</text><text x="3200.773px" y="2438.799px" style="font-family:'Helvetica';font-size:45.833px;fill:#1e1e24;">por paciente</text></g></g></g><g id="Requisitos-No-Funcionales" serif:id="Requisitos No Funcionales"><g id="RNF-01"><path d="M3691.667,2587.5l0,220.833c0,13.798 -11.202,25 -25,25l-679.167,0c-13.798,0 -25,-11.202 -25,-25l0,-220.833c0,-13.798 11.202,-25 25,-25l679.167,0c13.798,0 25,11.202 25,25Z" style="fill:#f8f1f9;stroke:#c3bcf0;stroke-width:8.33px;"/><g><text x="3247.02px" y="2646.841px" style="font-family:'Helvetica-Bold', 'Helvetica';font-weight:700;font-size:45.833px;fill:#1e1e24;">RNF-01</text><text x="3203.682px" y="2709.341px" style="font-family:'Helvetica';font-size:45.833px;fill:#1e1e24;">Arquitectura</text><text x="3221.474px" y="2771.841px" style="font-family:'Helvetica';font-size:45.833px;fill:#1e1e24;">hexagonal</text></g></g><g id="RNF-07"><path d="M3691.667,2879.167l0,220.833c0,13.798 -11.202,25 -25,25l-679.167,0c-13.798,0 -25,-11.202 -25,-25l0,-220.833c0,-13.798 11.202,-25 25,-25l679.167,0c13.798,0 25,11.202 25,25Z" style="fill:#f8f1f9;stroke:#c3bcf0;stroke-width:8.33px;"/><g><text x="3246.685px" y="2943.141px" style="font-family:'Helvetica-Bold', 'Helvetica';font-weight:700;font-size:45.833px;fill:#1e1e24;">RNF-07</text><text x="3135.816px" y="3005.641px" style="font-family:'Helvetica';font-size:45.833px;fill:#1e1e24;">Cobertura pruebas</text><text x="3268.46px" y="3068.141px" style="font-family:'Helvetica';font-size:45.833px;fill:#1e1e24;">≥50%</text></g></g></g><g id="Conectores-RF-RNF" serif:id="Conectores RF RNF"><path d="M2604.167,300c179.167,0 179.167,333.333 358.333,333.333" style="fill:none;fill-rule:nonzero;stroke:#888;stroke-width:6.25px;stroke-dasharray:25,16.667;"/><path d="M2604.167,633.333c179.167,0 179.167,479.167 358.333,479.167" style="fill:none;fill-rule:nonzero;stroke:#888;stroke-width:6.25px;stroke-dasharray:25,16.667;"/><path d="M2604.167,987.5c179.167,0 179.167,583.333 358.333,583.333" style="fill:none;fill-rule:nonzero;stroke:#888;stroke-width:6.25px;stroke-dasharray:25,16.667;"/><path d="M2604.167,1300c179.167,0 179.167,708.333 358.333,708.333" style="fill:none;fill-rule:nonzero;stroke:#888;stroke-width:6.25px;stroke-dasharray:25,16.667;"/><path d="M2604.167,1612.5c179.167,0 179.167,395.833 358.333,395.833" style="fill:none;fill-rule:nonzero;stroke:#888;stroke-width:6.25px;stroke-dasharray:25,16.667;"/><path d="M2604.167,1904.167c179.167,0 179.167,-1270.833 358.333,-1270.833" style="fill:none;fill-rule:nonzero;stroke:#888;stroke-width:6.25px;stroke-dasharray:25,16.667;"/><path d="M2604.167,2237.5c179.167,0 179.167,125 358.333,125" style="fill:none;fill-rule:nonzero;stroke:#888;stroke-width:6.25px;stroke-dasharray:25,16.667;"/><path d="M2604.167,2550c179.167,0 179.167,145.833 358.333,145.833" style="fill:none;fill-rule:nonzero;stroke:#888;stroke-width:6.25px;stroke-dasharray:25,16.667;"/><path d="M2604.167,2883.333c179.167,0 179.167,104.167 358.333,104.167" style="fill:none;fill-rule:nonzero;stroke:#888;stroke-width:6.25px;stroke-dasharray:25,16.667;"/></g><g id="Impactos"><g id="Agendar-citas-sin-translapes" serif:id="Agendar citas sin translapes"><path d="M2608.333,241.667l0,116.667c0,13.798 -11.202,25 -25,25l-679.167,0c-13.798,0 -25,-11.202 -25,-25l0,-116.667c0,-13.798 11.202,-25 25,-25l679.167,0c13.798,0 25,11.202 25,25Z" style="fill:#fafafa;stroke:#bdbdbd;stroke-width:4.17px;"/><text x="1969.097px" y="311.425px" style="font-family:'Helvetica';font-size:45.833px;fill:#1e1e24;">Agendar citas sin traslapes</text></g><g id="Gestionar-cancelaciones---reprogramaciones" serif:id="Gestionar cancelaciones / reprogramaciones"><path d="M2608.333,554.167l0,158.333c0,13.798 -11.202,25 -25,25l-679.167,0c-13.798,0 -25,-11.202 -25,-25l0,-158.333c0,-13.798 11.202,-25 25,-25l679.167,0c13.798,0 25,11.202 25,25Z" style="fill:#fafafa;stroke:#bdbdbd;stroke-width:4.17px;"/><g><g transform="matrix(45.833333,0,0,45.833333,2343.596395,613.87736)"></g><text x="2144.888px" y="613.877px" style="font-family:'Helvetica';font-size:45.833px;fill:#1e1e24;">Gestionar</text><g><text x="1928.921px" y="676.377px" style="font-family:'Helvetica';font-size:45.833px;fill:#1e1e24;">C<tspan x="1963.853px " y="676.377px ">a</tspan>ncelación / <tspan x="2220.738px " y="676.377px ">R</tspan>eprogramación</text></g></g></g><g id="Garantizar-integridad-registros" serif:id="Garantizar integridad registros"><path d="M2608.333,908.333l0,158.333c0,13.798 -11.202,25 -25,25l-679.167,0c-13.798,0 -25,-11.202 -25,-25l0,-158.333c0,-13.798 11.202,-25 25,-25l679.167,0c13.798,0 25,11.202 25,25Z" style="fill:#fafafa;stroke:#bdbdbd;stroke-width:4.17px;"/><g><text x="2030.137px" y="968.044px" style="font-family:'Helvetica';font-size:45.833px;fill:#1e1e24;">Garantizar integridad</text><text x="2124.411px" y="1030.544px" style="font-family:'Helvetica';font-size:45.833px;fill:#1e1e24;">de registros</text></g></g><g id="Agenda-sin-solapamiento" serif:id="Agenda sin solapamiento"><path d="M2608.333,1220.833l0,158.333c0,13.798 -11.202,25 -25,25l-679.167,0c-13.798,0 -25,-11.202 -25,-25l0,-158.333c0,-13.798 11.202,-25 25,-25l679.167,0c13.798,0 25,11.202 25,25Z" style="fill:#fafafa;stroke:#bdbdbd;stroke-width:4.17px;"/><g><text x="1975.43px" y="1284.785px" style="font-family:'Helvetica';font-size:45.833px;fill:#1e1e24;">Agenda sin solapamientos</text><text x="2129.592px" y="1347.285px" style="font-family:'Helvetica';font-size:45.833px;fill:#1e1e24;">de horarios</text></g></g><g id="Asignacion-consultorios" serif:id="Asignacion consultorios"><path d="M2608.333,1533.333l0,158.333c0,13.798 -11.202,25 -25,25l-679.167,0c-13.798,0 -25,-11.202 -25,-25l0,-158.333c0,-13.798 11.202,-25 25,-25l679.167,0c13.798,0 25,11.202 25,25Z" style="fill:#fafafa;stroke:#bdbdbd;stroke-width:4.17px;"/><g><g transform="matrix(45.833333,0,0,45.833333,2303.022257,1597.598267)"></g><g transform="matrix(45.833333,0,0,45.833333,2315.756226,1597.598267)"></g><text x="2040.577px" y="1597.598px" style="font-family:'Helvetica';font-size:45.833px;fill:#1e1e24;">Asignación eﬁciente</text><text x="2122.128px" y="1660.098px" style="font-family:'Helvetica';font-size:45.833px;fill:#1e1e24;">consultorios</text></g></g><g id="Atencion-sin-conflictos-operativos" serif:id="Atencion sin conflictos operativos"><path d="M2608.333,1825l0,158.333c0,13.798 -11.202,25 -25,25l-679.167,0c-13.798,0 -25,-11.202 -25,-25l0,-158.333c0,-13.798 11.202,-25 25,-25l679.167,0c13.798,0 25,11.202 25,25Z" style="fill:#fafafa;stroke:#bdbdbd;stroke-width:4.17px;"/><g><g transform="matrix(45.833333,0,0,45.833333,2353.823853,1884.945679)"></g><g transform="matrix(45.833333,0,0,45.833333,2366.557821,1884.945679)"></g><text x="2017.504px" y="1884.946px" style="font-family:'Helvetica';font-size:45.833px;fill:#1e1e24;">Atención sin conﬂictos</text><text x="2138.51px" y="1947.446px" style="font-family:'Helvetica';font-size:45.833px;fill:#1e1e24;">operativos</text></g></g><g id="Acceso-historial-citas" serif:id="Acceso historial citas"><path d="M2608.333,2179.167l0,116.667c0,13.798 -11.202,25 -25,25l-679.167,0c-13.798,0 -25,-11.202 -25,-25l0,-116.667c0,-13.798 11.202,-25 25,-25l679.167,0c13.798,0 25,11.202 25,25Z" style="fill:#fafafa;stroke:#bdbdbd;stroke-width:4.17px;"/><text x="2030.271px" y="2253.535px" style="font-family:'Helvetica';font-size:45.833px;fill:#1e1e24;">Acceso historial citas</text></g><g id="Escalabilidad-y-mantenibilidad" serif:id="Escalabilidad y mantenibilidad"><path d="M2608.333,2470.833l0,158.333c0,13.798 -11.202,25 -25,25l-679.167,0c-13.798,0 -25,-11.202 -25,-25l0,-158.333c0,-13.798 11.202,-25 25,-25l679.167,0c13.798,0 25,11.202 25,25Z" style="fill:#fafafa;stroke:#bdbdbd;stroke-width:4.17px;"/><g><text x="2089.902px" y="2534.785px" style="font-family:'Helvetica';font-size:45.833px;fill:#1e1e24;">Escalabilidad y</text><text x="1972.711px" y="2597.285px" style="font-family:'Helvetica';font-size:45.833px;fill:#1e1e24;">mantenibilidad del sistema</text></g></g><g id="Deteccion-temprana-de-regreciones" serif:id="Deteccion temprana de regreciones"><path d="M2608.333,2804.167l0,158.333c0,13.798 -11.202,25 -25,25l-679.167,0c-13.798,0 -25,-11.202 -25,-25l0,-158.333c0,-13.798 11.202,-25 25,-25l679.167,0c13.798,0 25,11.202 25,25Z" style="fill:#fafafa;stroke:#bdbdbd;stroke-width:4.17px;"/><g><text x="2037.31px" y="2863.821px" style="font-family:'Helvetica';font-size:45.833px;fill:#1e1e24;">Detección temprana</text><text x="2122.654px" y="2926.321px" style="font-family:'Helvetica';font-size:45.833px;fill:#1e1e24;">regresiones</text></g></g></g><g id="Conectores-Impactos" serif:id="Conectores Impactos"><path d="M1625,654.167c127.083,0 127.083,-354.167 254.167,-354.167" style="fill:none;fill-rule:nonzero;stroke:#555;stroke-width:6.25px;"/><path d="M1625,654.167c127.083,0 127.083,-20.833 254.167,-20.833" style="fill:none;fill-rule:nonzero;stroke:#555;stroke-width:6.25px;"/><path d="M1625,654.167c127.083,0 127.083,333.333 254.167,333.333" style="fill:none;fill-rule:nonzero;stroke:#555;stroke-width:6.25px;"/><path d="M1533.333,1341.667c172.917,0 172.917,-41.667 345.833,-41.667" style="fill:none;fill-rule:nonzero;stroke:#555;stroke-width:6.25px;"/><path d="M1533.333,1341.667c172.917,0 172.917,270.833 345.833,270.833" style="fill:none;fill-rule:nonzero;stroke:#555;stroke-width:6.25px;"/><path d="M1554.167,1904.167l325,0" style="fill:none;fill-rule:nonzero;stroke:#555;stroke-width:6.25px;"/><path d="M1554.167,1904.167c162.5,0 162.5,333.333 325,333.333" style="fill:none;fill-rule:nonzero;stroke:#555;stroke-width:6.25px;"/><path d="M1595.833,2487.5c141.667,0 141.667,62.5 283.333,62.5" style="fill:none;fill-rule:nonzero;stroke:#555;stroke-width:6.25px;"/><path d="M1595.833,2487.5c141.667,0 141.667,395.833 283.333,395.833" style="fill:none;fill-rule:nonzero;stroke:#555;stroke-width:6.25px;"/></g><g id="Actores"><g id="Administracion"><path d="M1629.167,566.667l0,179.167c0,13.798 -11.202,25 -25,25l-554.167,0c-13.798,0 -25,-11.202 -25,-25l0,-179.167c0,-13.798 11.202,-25 25,-25l554.167,0c13.798,0 25,11.202 25,25Z" style="fill:#fbf2da;stroke:#1e1e24;stroke-width:8.33px;"/><g><text x="1202.843px" y="641.404px" style="font-family:'Helvetica';font-size:45.833px;fill:#1e1e24;">PERSONAL</text><text x="1134.541px" y="703.904px" style="font-family:'Helvetica';font-size:45.833px;fill:#1e1e24;">ADMINISTRA<tspan x="1413.815px 1441.812px " y="703.904px 703.904px ">TI</tspan>VO</text></g></g><g id="Medico"><path d="M1533.333,1283.333l0,116.667c0,13.798 -11.202,25 -25,25l-366.667,0c-13.798,0 -25,-11.202 -25,-25l0,-116.667c0,-13.798 11.202,-25 25,-25l366.667,0c13.798,0 25,11.202 25,25Z" style="fill:#f2ecbb;stroke:#1e1e24;stroke-width:8.33px;"/><text x="1233.333px" y="1362.155px" style="font-family:'Helvetica';font-size:45.833px;fill:#1e1e24;">MÉDICO</text></g><g id="Paciente"><path d="M1554.167,1845.833l0,116.667c0,13.798 -11.202,25 -25,25l-408.333,0c-13.798,0 -25,-11.202 -25,-25l0,-116.667c0,-13.798 11.202,-25 25,-25l408.333,0c13.798,0 25,11.202 25,25Z" style="fill:#f0e3a8;stroke:#1e1e24;stroke-width:8.33px;"/><text x="1211.301px" y="1920.627px" style="font-family:'Helvetica';font-size:45.833px;fill:#1e1e24;">P<tspan x="1238.492px 1269.062px " y="1920.627px 1920.627px ">AC</tspan>IENTE</text></g><g id="Desarrollo"><path d="M1595.833,2400l0,179.167c0,13.798 -11.202,25 -25,25l-491.667,0c-13.798,0 -25,-11.202 -25,-25l0,-179.167c0,-13.798 11.202,-25 25,-25l491.667,0c13.798,0 25,11.202 25,25Z" style="fill:#fbdcb1;stroke:#1e1e24;stroke-width:8.33px;"/><g><text x="1234.922px" y="2474.738px" style="font-family:'Helvetica';font-size:45.833px;fill:#1e1e24;">EQUIPO</text><text x="1167.414px" y="2537.238px" style="font-family:'Helvetica';font-size:45.833px;fill:#1e1e24;">DESARROLLO</text></g></g></g><g id="Conectores-Actores" serif:id="Conectores Actores"><path d="M937.5,1570.833c43.75,0 43.75,-916.667 87.5,-916.667" style="fill:none;fill-rule:nonzero;stroke:#555;stroke-width:6.25px;"/><path d="M937.5,1570.833c89.583,0 89.583,-229.167 179.167,-229.167" style="fill:none;fill-rule:nonzero;stroke:#555;stroke-width:6.25px;"/><path d="M937.5,1570.833c79.167,0 79.167,333.333 158.333,333.333" style="fill:none;fill-rule:nonzero;stroke:#555;stroke-width:6.25px;"/><path d="M937.5,1570.833c58.333,0 58.333,916.667 116.667,916.667" style="fill:none;fill-rule:nonzero;stroke:#555;stroke-width:6.25px;"/></g><g id="Objetivo"><g id="iuKer"><path d="M941.667,1441.667l0,262.5c0,13.798 -11.202,25 -25,25l-679.167,0c-13.798,0 -25,-11.202 -25,-25l0,-262.5c0,-13.798 11.202,-25 25,-25l679.167,0c13.798,0 25,11.202 25,25Z" style="fill:#e3f2fd;stroke:#1e1e24;stroke-width:16.67px;"/><g><text x="503.021px" y="1526.759px" style="font-family:'Helvetica-Bold', 'Helvetica';font-weight:700;font-size:58.333px;fill:#1e1e24;">iuKer</text><text x="378.879px" y="1589.259px" style="font-family:'Helvetica';font-size:45.833px;fill:#1e1e24;">Gestión Clínica IPS</text><text x="245.139px" y="1651.759px" style="font-family:'Helvetica';font-size:45.833px;fill:#1e1e24;">Automatizar operaciones críticas</text></g></g></g><g transform="matrix(83.333333,0,0,83.333333,743.159993,105.060732)"></g><text x="409.786px" y="105.061px" style="font-family:'Helvetica-Bold', 'Helvetica';font-weight:700;font-size:83.333px;fill:#1e1e24;">Objetivo</text><g transform="matrix(83.333333,0,0,83.333333,1482.763672,105.060732)"></g><text x="1172.461px" y="105.061px" style="font-family:'Helvetica-Bold', 'Helvetica';font-weight:700;font-size:83.333px;fill:#1e1e24;">Actores</text><g transform="matrix(83.333333,0,0,83.333333,2425.57373,105.060732)"></g><text x="2059.729px" y="105.061px" style="font-family:'Helvetica-Bold', 'Helvetica';font-weight:700;font-size:83.333px;fill:#1e1e24;">Impactos</text><g transform="matrix(83.333333,0,0,83.333333,3563.818359,105.060732)"></g><text x="3086.808px" y="105.061px" style="font-family:'Helvetica-Bold', 'Helvetica';font-weight:700;font-size:83.333px;fill:#1e1e24;">Entregables</text></svg>