<?xml version="1.0" encoding="UTF-8" standalone="no"?>
<!DOCTYPE svg PUBLIC "-//W3C//DTD SVG 1.1//EN" "http://www.w3.org/Graphics/SVG/1.1/DTD/svg11.dtd">
<svg width="100%" height="100%" viewBox="0 0 512 512" version="1.1" xmlns="http://www.w3.org/2000/svg" xmlns:xlink="http://www.w3.org/1999/xlink" xml:space="preserve" xmlns:serif="http://www.serif.com/" style="fill-rule:evenodd;clip-rule:evenodd;stroke-linecap:round;stroke-linejoin:round;stroke-miterlimit:1.5;">
    <rect x="-12" y="-18" width="541" height="551" style="fill:rgb(246,246,236);"/>
    <g id="Logo" transform="matrix(1.254296,0,0,1.254296,-91.585052,-40.597079)">
        <g id="Cruz">
            <path d="M337.457,185L446,185L446,280L372,280L356,299L453.543,299C460.423,299 466,293.423 466,286.543L466,178.457C466,171.577 460.423,166 453.543,166L346,166L346,54.457C346,47.577 340.423,42 333.543,42L221.457,42C214.577,42 209,47.577 209,54.457L209,166L101.457,166C94.577,166 89,171.577 89,178.457L89,286.543C89,293.423 94.577,299 101.457,299L164,299L181,279L110,279L110,186L217.543,186C220.847,186 224.015,184.688 226.351,182.351C228.688,180.015 230,176.847 230,173.543L230,63L325,63L325,172.543C325,175.847 326.312,179.015 328.649,181.351C330.985,183.688 334.153,185 337.457,185Z" style="fill:rgb(21,66,91);stroke:rgb(21,66,91);stroke-width:1px;"/>
            <path d="M346,309L346,417.5C346,424.404 340.404,430 333.5,430L221.5,430C214.596,430 209,424.404 209,417.5L209,401L230,401L230,409L325,409L325,330L346,309Z" style="fill:rgb(21,66,91);stroke:rgb(21,66,91);stroke-width:1px;"/>
        </g>
        <path id="Pastilla" d="M184,297C205.932,275.068 253.761,226.711 275.955,205.045C293.746,187.677 329.419,190.464 347,208.045C369.336,230.381 366.353,266.647 347,286C327.647,305.353 284.528,348.904 261.915,371.085C242.898,389.739 206.986,392.941 184,371.085C165.861,353.837 166.301,314.699 184,297ZM232.441,275.294C232.441,275.294 208.89,299.845 197.441,311.294C187.993,320.742 187.124,345.732 200.441,358.294C217.758,374.629 241.273,364.437 246.343,359.367L281.429,324.281L232.441,275.294ZM296,310C296,310 324.551,280.449 336,269C347.449,257.551 345.317,233.562 332,221C318.683,208.438 294.168,213.857 289.098,218.927L247.012,261.012L296,310Z" style="fill:rgb(23,67,89);stroke:rgb(21,66,91);stroke-width:1px;"/>
    </g>
</svg>
