<?xml version="1.0" encoding="UTF-8" standalone="no"?>
<!DOCTYPE svg PUBLIC "-//W3C//DTD SVG 1.1//EN" "http://www.w3.org/Graphics/SVG/1.1/DTD/svg11.dtd">
<svg width="100%" height="100%" viewBox="0 0 863 389" version="1.1" xmlns="http://www.w3.org/2000/svg" xmlns:xlink="http://www.w3.org/1999/xlink" xml:space="preserve" xmlns:serif="http://www.serif.com/" style="fill-rule:evenodd;clip-rule:evenodd;stroke-linecap:round;stroke-linejoin:round;stroke-miterlimit:1.5;">
    <g transform="matrix(1,0,0,1,-88.5,-41.5)">
        <g id="iuKer">
            <g id="i">
                <rect x="526" y="204" width="27" height="96" style="fill:rgb(21,66,91);"/>
                <g transform="matrix(1.076923,0,0,1.076923,-43.692308,-16.923077)">
                    <circle cx="542" cy="181" r="13" style="fill:rgb(21,66,91);"/>
                </g>
            </g>
            <g id="U">
                <g transform="matrix(1,0,0,1,107,0)">
                    <rect x="526" y="204" width="27" height="96" style="fill:rgb(21,66,91);"/>
                </g>
                <path d="M633,267C633,267 628.706,281 614,281C599.294,281 597,269.649 597,259L597,204L570,204L570,268.085C570,269.771 570.134,271.454 570.4,273.119C571.339,278.661 574.024,290.118 581,295C590.376,301.562 595.138,302 601,302L609.639,302C609.995,302 610.35,301.98 610.702,301.939C613.757,301.452 626.14,298.648 634,283" style="fill:rgb(21,66,91);stroke:rgb(21,66,91);stroke-width:1px;"/>
            </g>
            <g id="K">
                <g transform="matrix(1,0,0,1.354167,154,-105.25)">
                    <rect x="526" y="204" width="27" height="96" style="fill:rgb(21,66,91);"/>
                </g>
                <path d="M707,230.445L755,170L785,170L739,227L706.399,259.601L707,230.445Z" style="fill:rgb(21,66,91);stroke:rgb(21,66,91);stroke-width:1px;"/>
                <path d="M789,300L739,227L720,246L757,300L789,300Z" style="fill:rgb(21,66,91);stroke:rgb(21,66,91);stroke-width:1px;"/>
            </g>
            <g id="E">
                <path d="M814,258C814,258 813.155,283 836,283C858.845,283 856,271 856,271L880,271C880,271 875.077,302 836,302C796.923,302 789,271.017 789,263L789,244C789,244 792.847,201.859 831.141,201.859L839,201.859C839,201.859 852.61,202.744 860,208C867.89,213.612 871.637,217.042 876,227C880.363,236.958 880,241 880,241L880,258L814,258ZM814,242L856,242C856,242 853.497,220.768 835.232,220.768C816.966,220.768 814,242 814,242Z" style="fill:rgb(21,66,91);stroke:rgb(21,66,91);stroke-width:1px;"/>
            </g>
            <path id="R" d="M921,300L895,300L895,204L921,204L921,221C921,223.687 921.667,219.667 922,219C922.5,218 923.5,216 924,215C924.333,214.333 924.617,213.639 925,213C925.5,212.167 926.202,210.898 927,210C928.333,208.5 931,205.333 933,204C934.754,202.831 936.913,202.298 939,202C941.333,201.667 944.993,202 947,202C951.007,202 951,203 951,203L951,225L937,225C935.325,225 932.814,225.093 931,226C929,227 926.5,229.333 925,231C923.7,232.445 922.667,234.333 922,236C921.369,237.578 921.027,239.301 921,241C920.833,251.667 921,300 921,300Z" style="fill:rgb(21,66,91);stroke:rgb(21,66,91);stroke-width:1px;"/>
        </g>
        <g id="Logo">
            <g id="Cruz">
                <path d="M337.457,185L446,185L446,280L372,280L356,299L453.543,299C460.423,299 466,293.423 466,286.543C466,261.183 466,203.817 466,178.457C466,171.577 460.423,166 453.543,166L346,166L346,54.457C346,47.577 340.423,42 333.543,42L221.457,42C214.577,42 209,47.577 209,54.457L209,166L101.457,166C94.577,166 89,171.577 89,178.457L89,286.543C89,293.423 94.577,299 101.457,299L164,299L181,279L110,279L110,186L217.543,186C220.847,186 224.015,184.688 226.351,182.351C228.688,180.015 230,176.847 230,173.543C230,161.803 230,63 230,63L325,63L325,172.543C325,175.847 326.312,179.015 328.649,181.351C330.985,183.688 334.153,185 337.457,185Z" style="fill:rgb(21,66,91);stroke:rgb(21,66,91);stroke-width:1px;"/>
                <path d="M346,309L346,417.5C346,424.404 340.404,430 333.5,430C307.439,430 247.561,430 221.5,430C214.596,430 209,424.404 209,417.5C209,409.649 209,401 209,401L230,401L230,409L325,409L325,330L346,309Z" style="fill:rgb(21,66,91);stroke:rgb(21,66,91);stroke-width:1px;"/>
            </g>
            <path id="Pastilla" d="M184,297C205.932,275.068 253.761,226.711 275.955,205.045C293.746,187.677 329.419,190.464 347,208.045C369.336,230.381 366.353,266.647 347,286C327.647,305.353 284.528,348.904 261.915,371.085C242.898,389.739 206.986,392.941 184,371.085C165.861,353.837 166.301,314.699 184,297ZM232.441,275.294C232.441,275.294 208.89,299.845 197.441,311.294C187.993,320.742 187.124,345.732 200.441,358.294C217.758,374.629 241.273,364.437 246.343,359.367L281.429,324.281L232.441,275.294ZM296,310C296,310 324.551,280.449 336,269C347.449,257.551 345.317,233.562 332,221C318.683,208.438 294.168,213.857 289.098,218.927L247.012,261.012L296,310Z" style="fill:rgb(23,67,89);stroke:rgb(21,66,91);stroke-width:1px;"/>
        </g>
    </g>
</svg>
