<?xml version="1.0" encoding="UTF-8" standalone="no"?><!DOCTYPE svg PUBLIC "-//W3C//DTD SVG 1.1//EN" "http://www.w3.org/Graphics/SVG/1.1/DTD/svg11.dtd"><svg width="100%" height="100%" viewBox="0 0 3596 1621" version="1.1" xmlns="http://www.w3.org/2000/svg" xmlns:xlink="http://www.w3.org/1999/xlink" xml:space="preserve" xmlns:serif="http://www.serif.com/" style="fill-rule:evenodd;clip-rule:evenodd;stroke-linecap:round;stroke-linejoin:round;stroke-miterlimit:1.5;"><g id="Creditos"><g transform="matrix(83.333333,0,0,83.333333,3423.278384,1215.189573)"></g><text x="2136.695px" y="1215.19px" style="font-family:'PTSans-BoldItalic', 'PT Sans', sans-serif;font-weight:700;font-style:italic;font-size:83.333px;fill:#15425b;">P<tspan x="2181.945px " y="1215.19px ">o</tspan>r: Sebastian,<tspan x="2644.362px 2665.445px " y="1215.19px 1215.19px "> E</tspan>dwin,<tspan x="2883.862px 2904.945px " y="1215.19px 1215.19px "> I</tspan>srael <tspan x="3113.112px 3149.695px " y="1215.19px 1215.19px ">y </tspan>Samuel</text></g><g id="iuKer"><g id="i"><rect x="1822.917" y="677.083" width="112.5" height="400" style="fill:#15425b;"/><circle cx="1881.25" cy="568.75" r="58.333" style="fill:#15425b;"/></g><g id="U"><rect x="2268.75" y="677.083" width="112.5" height="400" style="fill:#15425b;"/><path d="M2268.75,939.583c0,0 -17.89,58.333 -79.167,58.333c-61.276,0 -70.833,-47.294 -70.833,-91.667l0,-229.167l-112.5,0l0,267.019c-0,7.026 0.556,14.04 1.665,20.978c3.915,23.09 15.101,70.826 44.168,91.17c39.067,27.342 58.908,29.167 83.333,29.167l35.997,-0c1.48,0.001 2.959,-0.084 4.429,-0.256c12.726,-2.028 64.324,-13.712 97.074,-78.911" style="fill:#15425b;stroke:#15425b;stroke-width:4.17px;"/></g><g id="K"><rect x="2464.583" y="539.583" width="112.5" height="541.667" style="fill:#15425b;"/><path d="M2577.083,787.271l200,-251.855l125,0l-191.667,237.5l-135.837,135.837l2.504,-121.483Z" style="fill:#15425b;stroke:#15425b;stroke-width:4.17px;"/><path d="M2918.75,1077.083l-208.333,-304.167l-79.167,79.167l154.167,225l133.333,0Z" style="fill:#15425b;stroke:#15425b;stroke-width:4.17px;"/></g><g id="E"><path d="M3022.917,902.083c0,0 -3.523,104.167 91.667,104.167c95.189,0 83.333,-50 83.333,-50l100,0c0,0 -20.514,129.167 -183.333,129.167c-162.819,0 -195.833,-129.096 -195.833,-162.5l0,-79.167c0,0 16.028,-175.588 175.588,-175.588l32.745,0c0,0 56.709,3.689 87.5,25.588c32.875,23.382 48.487,37.673 66.667,79.167c18.18,41.494 16.667,58.333 16.667,58.333l0,70.833l-275,0Zm0,-66.667l175,0c0,0 -10.429,-88.466 -86.534,-88.466c-76.105,0 -88.466,88.466 -88.466,88.466Z" style="fill:#15425b;stroke:#15425b;stroke-width:4.17px;"/></g><path id="R" d="M3468.75,1077.083l-108.333,0l0,-400l108.333,0l0,70.833c0,11.198 2.778,-5.556 4.167,-8.333c2.083,-4.167 6.25,-12.5 8.333,-16.667c1.389,-2.778 2.569,-5.67 4.167,-8.333c2.083,-3.472 5.006,-8.757 8.333,-12.5c5.556,-6.25 16.667,-19.444 25,-25c7.309,-4.873 16.304,-7.091 25,-8.333c9.722,-1.389 24.971,0 33.333,0c16.696,0 16.667,4.167 16.667,4.167l0,91.667l-58.333,0c-6.979,0 -17.444,0.388 -25,4.167c-8.333,4.167 -18.75,13.889 -25,20.833c-5.418,6.02 -9.722,13.889 -12.5,20.833c-2.63,6.575 -4.056,13.752 -4.167,20.833c-0.694,44.444 0,245.833 0,245.833Z" style="fill:#15425b;stroke:#15425b;stroke-width:4.17px;"/></g><g id="Logo"><path d="M1037.32,597.917c18.844,-0 452.263,-0 452.263,-0l0,395.833l-308.333,0l-66.667,79.167l406.43,0c28.666,-0 51.903,-23.238 51.903,-51.904c-0,-105.668 -0,-344.692 -0,-450.36c-0,-28.666 -23.238,-51.904 -51.904,-51.904l-448.096,0l0,-464.763c-0,-28.666 -23.238,-51.903 -51.903,-51.904c-108.552,-0 -358.474,-0 -467.026,-0c-28.666,0 -51.903,23.238 -51.903,51.904c0,131.018 0,464.763 0,464.763l-448.096,0c-28.666,-0 -51.904,23.238 -51.904,51.904l-0,450.36c0,28.666 23.238,51.904 51.904,51.904l260.596,-0l70.833,-83.333l-295.833,0l0,-387.5l448.096,0c13.766,0 26.968,-5.468 36.701,-15.202c9.734,-9.734 15.202,-22.936 15.202,-36.701c0,-48.917 0,-460.596 0,-460.596l395.833,0l0,456.43c-0,13.766 5.468,26.968 15.202,36.701c9.734,9.734 22.936,15.202 36.701,15.202Z" style="fill:#15425b;stroke:#15425b;stroke-width:4.17px;"/><path d="M1072.917,1114.583l0,452.083c-0,28.765 -23.319,52.083 -52.083,52.083c-108.588,-0 -358.078,-0 -466.667,-0c-28.765,-0 -52.083,-23.318 -52.083,-52.083c-0,-32.713 -0,-68.75 -0,-68.75l87.5,0l0,33.333l395.833,0l0,-329.167l87.5,-87.5Z" style="fill:#15425b;stroke:#15425b;stroke-width:4.17px;"/></g><path id="Pastilla" d="M397.917,1064.583c91.382,-91.382 290.671,-292.872 383.147,-383.147c74.129,-72.365 222.767,-60.753 296.019,12.5c93.068,93.069 80.637,244.177 0,324.814c-80.637,80.637 -260.301,262.1 -354.52,354.52c-79.237,77.724 -228.872,91.066 -324.647,0c-75.581,-71.866 -73.747,-234.94 0,-308.687Zm201.839,-90.443c0,0 -98.131,102.298 -145.833,150c-39.369,39.369 -42.988,143.491 12.5,195.833c72.154,68.064 170.132,25.598 191.259,4.471l146.189,-146.189l-204.115,-204.115Zm264.828,144.61c0,0 118.964,-123.131 166.667,-170.833c47.702,-47.702 38.821,-147.658 -16.667,-200c-55.488,-52.342 -157.632,-29.764 -178.759,-8.638l-175.356,175.356l204.115,204.115Z" style="fill:#174359;stroke:#15425b;stroke-width:4.17px;"/></svg>